<svg width="174" height="161" viewBox="0 0 174 161" fill="none" xmlns="http://www.w3.org/2000/svg">
<mask id="path-1-inside-1_76_1411" fill="white">
<path d="M0 0H174V161H0V0Z"/>
</mask>
<path d="M0 0H174V161H0V0Z" fill="white"/>
<path d="M174 161V156.611H0V161V165.389H174V161Z" fill="#DDE1E6" mask="url(#path-1-inside-1_76_1411)"/>
<path d="M71.6 62.2703C64.6412 62.2703 59 56.6073 59 49.6216C59 43.5912 63.2039 38.5465 68.8302 37.2796C68.5813 36.1633 68.45 35.0024 68.45 33.8108C68.45 25.0787 75.5015 18 84.2 18C91.8208 18 98.1775 23.4334 99.6356 30.6517C99.7401 30.6497 99.8449 30.6487 99.95 30.6487C108.648 30.6487 115.7 37.7274 115.7 46.4595C115.7 54.1086 110.289 60.4891 103.1 61.954M96.8 52.7838L87.35 43.2973M87.35 43.2973L77.9 52.7838M87.35 43.2973V71.0833" stroke="#21272A" stroke-width="5.4" stroke-linecap="round" stroke-linejoin="round"/>
<path d="M69.6831 91.9262V109H66.1652V91.9262H69.6831ZM76.4845 99.2201V101.964H68.7216V99.2201H76.4845ZM77.3054 91.9262V94.6819H68.7216V91.9262H77.3054ZM83.0866 91.9262V109H79.5803V91.9262H83.0866ZM97.3578 106.256V109H88.7622V106.256H97.3578ZM89.8997 91.9262V109H86.3817V91.9262H89.8997ZM110.832 106.256V109H101.744V106.256H110.832ZM102.893 91.9262V109H99.3747V91.9262H102.893ZM109.647 98.88V101.554H101.744V98.88H109.647ZM110.82 91.9262V94.6819H101.744V91.9262H110.82ZM53.1605 115.926H56.6667V127.207C56.6667 128.52 56.3852 129.627 55.8224 130.526C55.2673 131.425 54.4973 132.101 53.5122 132.554C52.535 133.008 51.4093 133.235 50.135 133.235C48.8607 133.235 47.7272 133.008 46.7343 132.554C45.7493 132.101 44.9753 131.425 44.4125 130.526C43.8574 129.627 43.5799 128.52 43.5799 127.207V115.926H47.0978V127.207C47.0978 127.973 47.219 128.599 47.4614 129.083C47.7037 129.568 48.0516 129.924 48.505 130.15C48.9663 130.377 49.5096 130.491 50.135 130.491C50.7761 130.491 51.3194 130.377 51.765 130.15C52.2184 129.924 52.5624 129.568 52.7969 129.083C53.0393 128.599 53.1605 127.973 53.1605 127.207V115.926ZM66.2121 126.914H61.8615V124.17H66.2121C66.8844 124.17 67.4317 124.06 67.8538 123.842C68.276 123.615 68.5848 123.302 68.7802 122.903C68.9756 122.505 69.0734 122.055 69.0734 121.555C69.0734 121.047 68.9756 120.574 68.7802 120.136C68.5848 119.698 68.276 119.346 67.8538 119.081C67.4317 118.815 66.8844 118.682 66.2121 118.682H63.0811V133H59.5631V115.926H66.2121C67.5489 115.926 68.6942 116.169 69.648 116.653C70.6095 117.13 71.3444 117.791 71.8526 118.635C72.3607 119.479 72.6148 120.445 72.6148 121.531C72.6148 122.634 72.3607 123.587 71.8526 124.393C71.3444 125.198 70.6095 125.819 69.648 126.257C68.6942 126.695 67.5489 126.914 66.2121 126.914ZM86.0182 130.256V133H77.4227V130.256H86.0182ZM78.5601 115.926V133H75.0422V115.926H78.5601ZM101.286 124.064V124.874C101.286 126.171 101.11 127.336 100.758 128.368C100.407 129.4 99.9103 130.279 99.2692 131.006C98.6282 131.726 97.862 132.277 96.9708 132.66C96.0874 133.043 95.1063 133.235 94.0274 133.235C92.9564 133.235 91.9753 133.043 91.0841 132.66C90.2007 132.277 89.4345 131.726 88.7857 131.006C88.1368 130.279 87.6326 129.4 87.273 128.368C86.9212 127.336 86.7453 126.171 86.7453 124.874V124.064C86.7453 122.759 86.9212 121.594 87.273 120.57C87.6248 119.538 88.1212 118.658 88.7622 117.931C89.4111 117.204 90.1772 116.649 91.0606 116.266C91.9518 115.883 92.933 115.692 94.004 115.692C95.0828 115.692 96.064 115.883 96.9474 116.266C97.8386 116.649 98.6047 117.204 99.2458 117.931C99.8946 118.658 100.395 119.538 100.747 120.57C101.106 121.594 101.286 122.759 101.286 124.064ZM97.733 124.874V124.041C97.733 123.134 97.6509 122.337 97.4868 121.649C97.3226 120.961 97.0803 120.382 96.7597 119.913C96.4392 119.444 96.0483 119.092 95.5871 118.858C95.1258 118.615 94.5981 118.494 94.004 118.494C93.4098 118.494 92.8821 118.615 92.4209 118.858C91.9675 119.092 91.5805 119.444 91.26 119.913C90.9473 120.382 90.7088 120.961 90.5447 121.649C90.3805 122.337 90.2984 123.134 90.2984 124.041V124.874C90.2984 125.773 90.3805 126.57 90.5447 127.266C90.7088 127.954 90.9512 128.536 91.2717 129.013C91.5922 129.482 91.9831 129.838 92.4444 130.08C92.9056 130.322 93.4333 130.444 94.0274 130.444C94.6216 130.444 95.1493 130.322 95.6105 130.08C96.0718 129.838 96.4587 129.482 96.7715 129.013C97.0842 128.536 97.3226 127.954 97.4868 127.266C97.6509 126.57 97.733 125.773 97.733 124.874ZM110.503 118.846L105.86 133H102.119L108.463 115.926H110.843L110.503 118.846ZM114.361 133L109.706 118.846L109.331 115.926H111.735L118.114 133H114.361ZM114.15 126.644V129.4H105.132V126.644H114.15ZM124.939 133H121.221L121.245 130.256H124.939C125.861 130.256 126.639 130.049 127.272 129.634C127.905 129.212 128.382 128.599 128.703 127.793C129.031 126.988 129.195 126.015 129.195 124.874V124.041C129.195 123.165 129.102 122.395 128.914 121.731C128.734 121.066 128.464 120.507 128.105 120.054C127.745 119.6 127.303 119.26 126.78 119.034C126.256 118.799 125.654 118.682 124.974 118.682H121.151V115.926H124.974C126.115 115.926 127.159 116.122 128.105 116.512C129.059 116.896 129.883 117.447 130.579 118.166C131.275 118.885 131.81 119.745 132.186 120.746C132.569 121.739 132.76 122.845 132.76 124.064V124.874C132.76 126.085 132.569 127.191 132.186 128.192C131.81 129.193 131.275 130.053 130.579 130.772C129.891 131.483 129.066 132.035 128.105 132.425C127.151 132.808 126.096 133 124.939 133ZM123.215 115.926V133H119.697V115.926H123.215Z" fill="#001D6C"/>
</svg>
