<svg width="65" height="63" viewBox="0 0 65 63" fill="none" xmlns="http://www.w3.org/2000/svg">
<path d="M24.0713 1.45898L43.5273 1.45898L63.4619 21.3936L63.4619 53.9785C63.4619 58.0071 60.1956 61.2734 56.167 61.2734L24.0713 61.2734C20.0429 61.2732 16.7773 58.007 16.7773 53.9785L16.7773 8.75293C16.7776 4.85042 19.8423 1.66414 23.6963 1.46875L24.0713 1.45898Z" fill="#EEF1F7" stroke="#CBD0DC" stroke-width="2.91778"/>
<rect y="27.7188" width="43.7667" height="25.5306" rx="5.10611" fill="#D82042"/>
<path d="M7.25342 46.6845L7.25342 34.4829H11.6026C12.5519 34.4829 13.3383 34.6557 13.9619 35.0012C14.5855 35.3468 15.0522 35.8194 15.362 36.4192C15.6718 37.015 15.8267 37.6862 15.8267 38.4329C15.8267 39.1836 15.6698 39.8589 15.3561 40.4586C15.0462 41.0544 14.5776 41.527 13.95 41.8766C13.3264 42.2221 12.542 42.3949 11.5967 42.3949H8.60584V40.8339H11.4299C12.0296 40.8339 12.5162 40.7307 12.8895 40.5241C13.2629 40.3136 13.5369 40.0277 13.7117 39.6662C13.8865 39.3048 13.9738 38.8937 13.9738 38.4329C13.9738 37.9722 13.8865 37.5631 13.7117 37.2056C13.5369 36.8482 13.2609 36.5681 12.8836 36.3656C12.5102 36.163 12.0177 36.0617 11.406 36.0617H9.09438L9.09438 46.6845H7.25342Z" fill="white"/>
<path d="M21.935 46.6845H17.9849L17.9849 34.4829H22.0601C23.2556 34.4829 24.2824 34.7272 25.1403 35.2157C25.9982 35.7003 26.6556 36.3974 27.1123 37.3069C27.5731 38.2125 27.8034 39.2988 27.8034 40.5658C27.8034 41.8368 27.5711 42.9291 27.1064 43.8426C26.6456 44.7562 25.9784 45.4592 25.1045 45.9517C24.2307 46.4403 23.1742 46.6845 21.935 46.6845ZM19.8259 45.0759H21.8337C22.7631 45.0759 23.5356 44.9012 24.1513 44.5516C24.7669 44.1981 25.2277 43.6877 25.5335 43.0205C25.8393 42.3492 25.9923 41.531 25.9923 40.5658C25.9923 39.6086 25.8393 38.7964 25.5335 38.1291C25.2316 37.4618 24.7808 36.9554 24.1811 36.6099C23.5813 36.2643 22.8366 36.0915 21.9469 36.0915H19.8259L19.8259 45.0759Z" fill="white"/>
<path d="M30.0927 46.6845L30.0927 34.4829H37.6592V36.0677H31.9337V39.7854H37.117V41.3642H31.9337V46.6845H30.0927Z" fill="white"/>
</svg>
