<svg width="205" height="25" viewBox="0 0 205 25" fill="none" xmlns="http://www.w3.org/2000/svg">
<path d="M0.3125 1.25H8.35938C10.0885 1.25 11.5625 1.51042 12.7812 2.03125C14 2.55208 14.9323 3.32292 15.5781 4.34375C16.2344 5.35417 16.5625 6.60417 16.5625 8.09375C16.5625 9.22917 16.3542 10.2292 15.9375 11.0938C15.5208 11.9583 14.9323 12.6875 14.1719 13.2812C13.4115 13.8646 12.5052 14.3177 11.4531 14.6406L10.2656 15.2188H3.03125L3 12.1094H8.42188C9.35938 12.1094 10.1406 11.9427 10.7656 11.6094C11.3906 11.276 11.8594 10.8229 12.1719 10.25C12.4948 9.66667 12.6562 9.01042 12.6562 8.28125C12.6562 7.48958 12.5 6.80208 12.1875 6.21875C11.8854 5.625 11.4167 5.17188 10.7812 4.85938C10.1458 4.53646 9.33854 4.375 8.35938 4.375H4.23438V24H0.3125V1.25ZM13.2969 24L7.95312 13.7812L12.0625 13.7656L17.4844 23.7969V24H13.2969ZM35.3594 20.8906V24H23.2812V20.8906H35.3594ZM24.3906 1.25V24H20.4688V1.25H24.3906ZM33.7812 10.75V13.8125H23.2812V10.75H33.7812ZM35.2812 1.25V4.375H23.2812V1.25H35.2812ZM52 16.5938H55.9062C55.7812 18.0833 55.3646 19.4115 54.6562 20.5781C53.9479 21.7344 52.9531 22.6458 51.6719 23.3125C50.3906 23.9792 48.8333 24.3125 47 24.3125C45.5938 24.3125 44.3281 24.0625 43.2031 23.5625C42.0781 23.0521 41.1146 22.3333 40.3125 21.4062C39.5104 20.4688 38.8958 19.3385 38.4688 18.0156C38.0521 16.6927 37.8438 15.2135 37.8438 13.5781V11.6875C37.8438 10.0521 38.0573 8.57292 38.4844 7.25C38.9219 5.92708 39.5469 4.79688 40.3594 3.85938C41.1719 2.91146 42.1458 2.1875 43.2812 1.6875C44.4271 1.1875 45.7135 0.9375 47.1406 0.9375C48.9531 0.9375 50.4844 1.27083 51.7344 1.9375C52.9844 2.60417 53.9531 3.52604 54.6406 4.70312C55.3385 5.88021 55.7656 7.22917 55.9219 8.75H52.0156C51.9115 7.77083 51.6823 6.93229 51.3281 6.23438C50.9844 5.53646 50.474 5.00521 49.7969 4.64062C49.1198 4.26562 48.2344 4.07812 47.1406 4.07812C46.2448 4.07812 45.4635 4.24479 44.7969 4.57812C44.1302 4.91146 43.5729 5.40104 43.125 6.04688C42.6771 6.69271 42.3385 7.48958 42.1094 8.4375C41.8906 9.375 41.7812 10.4479 41.7812 11.6562V13.5781C41.7812 14.724 41.8802 15.7656 42.0781 16.7031C42.2865 17.6302 42.599 18.4271 43.0156 19.0938C43.4427 19.7604 43.9844 20.276 44.6406 20.6406C45.2969 21.0052 46.0833 21.1875 47 21.1875C48.1146 21.1875 49.0156 21.0104 49.7031 20.6562C50.401 20.3021 50.9271 19.7865 51.2812 19.1094C51.6458 18.4219 51.8854 17.5833 52 16.5938ZM74.3594 20.8906V24H62.2812V20.8906H74.3594ZM63.3906 1.25V24H59.4688V1.25H63.3906ZM72.7812 10.75V13.8125H62.2812V10.75H72.7812ZM74.2812 1.25V4.375H62.2812V1.25H74.2812ZM95.6094 1.25V24H91.6875L81.4844 7.70312V24H77.5625V1.25H81.4844L91.7188 17.5781V1.25H95.6094ZM109.172 1.25V24H105.281V1.25H109.172ZM116.312 1.25V4.375H98.2031V1.25H116.312ZM130.453 1.25V24H126.531V1.25H130.453ZM139.734 11.2031V14.3125H129.453V11.2031H139.734ZM141.031 1.25V4.375H129.453V1.25H141.031ZM148.344 1.25V24H144.422V1.25H148.344ZM167.469 20.8906V24H156.047V20.8906H167.469ZM157.141 1.25V24H153.219V1.25H157.141ZM185.391 20.8906V24H173.312V20.8906H185.391ZM174.422 1.25V24H170.5V1.25H174.422ZM183.812 10.75V13.8125H173.312V10.75H183.812ZM185.312 1.25V4.375H173.312V1.25H185.312ZM200.562 18.1406C200.562 17.6719 200.49 17.2552 200.344 16.8906C200.208 16.526 199.964 16.1927 199.609 15.8906C199.255 15.5885 198.755 15.2969 198.109 15.0156C197.474 14.724 196.661 14.4271 195.672 14.125C194.589 13.7917 193.589 13.4219 192.672 13.0156C191.766 12.599 190.974 12.1198 190.297 11.5781C189.62 11.026 189.094 10.3958 188.719 9.6875C188.344 8.96875 188.156 8.14062 188.156 7.20312C188.156 6.27604 188.349 5.43229 188.734 4.67188C189.13 3.91146 189.688 3.25521 190.406 2.70312C191.135 2.14062 191.995 1.70833 192.984 1.40625C193.974 1.09375 195.068 0.9375 196.266 0.9375C197.953 0.9375 199.406 1.25 200.625 1.875C201.854 2.5 202.797 3.33854 203.453 4.39062C204.12 5.44271 204.453 6.60417 204.453 7.875H200.562C200.562 7.125 200.401 6.46354 200.078 5.89062C199.766 5.30729 199.286 4.84896 198.641 4.51562C198.005 4.18229 197.198 4.01562 196.219 4.01562C195.292 4.01562 194.521 4.15625 193.906 4.4375C193.292 4.71875 192.833 5.09896 192.531 5.57812C192.229 6.05729 192.078 6.59896 192.078 7.20312C192.078 7.63021 192.177 8.02083 192.375 8.375C192.573 8.71875 192.875 9.04167 193.281 9.34375C193.688 9.63542 194.198 9.91146 194.812 10.1719C195.427 10.4323 196.151 10.6823 196.984 10.9219C198.245 11.2969 199.344 11.7135 200.281 12.1719C201.219 12.6198 202 13.1302 202.625 13.7031C203.25 14.276 203.719 14.9271 204.031 15.6562C204.344 16.375 204.5 17.1927 204.5 18.1094C204.5 19.0677 204.307 19.9323 203.922 20.7031C203.536 21.4635 202.984 22.1146 202.266 22.6562C201.557 23.1875 200.703 23.599 199.703 23.8906C198.714 24.1719 197.609 24.3125 196.391 24.3125C195.297 24.3125 194.219 24.1667 193.156 23.875C192.104 23.5833 191.146 23.1406 190.281 22.5469C189.417 21.9427 188.729 21.1927 188.219 20.2969C187.708 19.3906 187.453 18.3333 187.453 17.125H191.375C191.375 17.8646 191.5 18.4948 191.75 19.0156C192.01 19.5365 192.37 19.9635 192.828 20.2969C193.286 20.6198 193.818 20.8594 194.422 21.0156C195.036 21.1719 195.693 21.25 196.391 21.25C197.307 21.25 198.073 21.1198 198.688 20.8594C199.312 20.599 199.781 20.2344 200.094 19.7656C200.406 19.2969 200.562 18.7552 200.562 18.1406Z" fill="#21272A"/>
</svg>
