<svg width="60" height="56" viewBox="0 0 60 56" fill="none" xmlns="http://www.w3.org/2000/svg">
<path d="M18.6507 45.1267H13.8506C6.50056 44.6367 3.20068 39.3634 3.20068 34.6734C3.20068 29.9834 6.50059 24.6867 13.7256 24.22C14.7506 24.1267 15.6506 24.8734 15.7256 25.8534C15.8006 26.81 15.0257 27.65 13.9757 27.72C9.12568 28.0467 6.95068 31.4534 6.95068 34.6967C6.95068 37.94 9.12568 41.3467 13.9757 41.6734H18.6507C19.6757 41.6734 20.5257 42.4667 20.5257 43.4234C20.5257 44.38 19.6757 45.1267 18.6507 45.1267Z" fill="#292D32"/>
<path d="M41.6743 45.1265C41.6243 45.1265 41.5993 45.1265 41.5493 45.1265C40.5243 45.1265 39.5743 44.3332 39.5743 43.3765C39.5743 42.3732 40.3743 41.6265 41.4243 41.6265C44.4993 41.6265 47.2493 40.6232 49.3993 38.8265C53.2993 35.6532 53.5493 31.0798 52.4993 27.8598C51.4493 24.6632 48.5243 20.9998 43.4243 20.4165C42.5993 20.3232 41.9492 19.7399 41.7992 18.9699C40.7992 13.3699 37.5743 9.49651 32.6743 8.09651C27.6243 6.62651 21.7242 8.07318 18.0492 11.6665C14.4742 15.1432 13.6492 20.0199 15.7242 25.3865C16.0742 26.2965 15.5744 27.2998 14.5994 27.6265C13.6244 27.9532 12.5493 27.4865 12.1993 26.5765C9.67431 19.9965 10.8243 13.6965 15.3493 9.26318C19.9743 4.73651 27.3993 2.93983 33.7743 4.75983C39.6243 6.43983 43.7492 10.9432 45.2492 17.1965C50.3492 18.2698 54.4493 21.8865 56.0743 26.8799C57.8493 32.3165 56.2493 37.9165 51.8743 41.4632C49.0993 43.7965 45.4743 45.1265 41.6743 45.1265Z" fill="#292D32"/>
<path d="M29.9995 51.9867C24.9745 51.9867 20.2746 49.49 17.6996 45.4533C17.4246 45.0567 17.1496 44.59 16.9246 44.0767C16.0746 42.42 15.6245 40.53 15.6245 38.57C15.6245 31.1733 22.0745 25.1533 29.9995 25.1533C37.9245 25.1533 44.3745 31.1733 44.3745 38.57C44.3745 40.5533 43.9246 42.42 43.0246 44.1467C42.8246 44.59 42.5496 45.0567 42.2496 45.5C39.7246 49.49 35.0245 51.9867 29.9995 51.9867ZM29.9995 28.6533C24.1495 28.6533 19.3745 33.11 19.3745 38.57C19.3745 40.0167 19.6995 41.37 20.3245 42.6066C20.5245 43.0033 20.6995 43.33 20.8995 43.6333C22.7995 46.6433 26.2745 48.4867 29.9745 48.4867C33.6745 48.4867 37.1495 46.6433 39.0245 43.68C39.2495 43.33 39.4496 43.0033 39.5996 42.6766C40.2746 41.3933 40.5995 40.04 40.5995 38.5933C40.6245 33.11 35.8495 28.6533 29.9995 28.6533Z" fill="#292D32"/>
<path d="M28.5738 42.6298C28.0988 42.6298 27.6239 42.4665 27.2489 42.1165L24.7737 39.8065C24.0487 39.1298 24.0487 38.0098 24.7737 37.3331C25.4987 36.6565 26.6987 36.6565 27.4237 37.3331L28.6238 38.4531L32.6238 34.9998C33.3988 34.3465 34.5738 34.3931 35.2738 35.0931C35.9738 35.7931 35.9238 36.9131 35.1738 37.5665L29.8488 42.1631C29.4738 42.4665 29.0238 42.6298 28.5738 42.6298Z" fill="#292D32"/>
</svg>
