<svg width="173" height="78" viewBox="0 0 173 78" fill="none" xmlns="http://www.w3.org/2000/svg">
<g filter="url(#filter0_d_76_1432)">
<rect x="4" width="165" height="70" rx="12" fill="#F2F4F8" shape-rendering="crispEdges"/>
</g>
<path d="M77.2989 29.256V32H68.2109V29.256H77.2989ZM69.3601 14.9262V32H65.8421V14.9262H69.3601ZM76.1145 21.88V24.5536H68.2109V21.88H76.1145ZM77.2872 14.9262V17.6819H68.2109V14.9262H77.2872ZM82.2475 14.9262L85.4606 20.8832L88.6737 14.9262H92.6959L87.7355 23.3927L92.8249 32H88.7675L85.4606 25.9257L82.1537 32H78.0729L83.1739 23.3927L78.2019 14.9262H82.2475ZM101.245 25.9139H96.894V23.1699H101.245C101.917 23.1699 102.464 23.0605 102.886 22.8416C103.308 22.6149 103.617 22.3022 103.813 21.9034C104.008 21.5047 104.106 21.0552 104.106 20.5549C104.106 20.0467 104.008 19.5738 103.813 19.136C103.617 18.6982 103.308 18.3464 102.886 18.0806C102.464 17.8148 101.917 17.6819 101.245 17.6819H98.1135V32H94.5956V14.9262H101.245C102.581 14.9262 103.727 15.1685 104.68 15.6532C105.642 16.1301 106.377 16.7907 106.885 17.635C107.393 18.4793 107.647 19.4448 107.647 20.5314C107.647 21.6337 107.393 22.5875 106.885 23.3927C106.377 24.1979 105.642 24.8194 104.68 25.2572C103.727 25.695 102.581 25.9139 101.245 25.9139ZM124.1 23.0644V23.8735C124.1 25.1712 123.924 26.3361 123.572 27.368C123.22 28.4 122.724 29.2794 122.083 30.0065C121.442 30.7257 120.675 31.2769 119.784 31.6599C118.901 32.043 117.92 32.2345 116.841 32.2345C115.77 32.2345 114.789 32.043 113.897 31.6599C113.014 31.2769 112.248 30.7257 111.599 30.0065C110.95 29.2794 110.446 28.4 110.086 27.368C109.735 26.3361 109.559 25.1712 109.559 23.8735V23.0644C109.559 21.7588 109.735 20.594 110.086 19.5699C110.438 18.5379 110.935 17.6584 111.576 16.9314C112.224 16.2044 112.991 15.6493 113.874 15.2662C114.765 14.8832 115.746 14.6916 116.817 14.6916C117.896 14.6916 118.877 14.8832 119.761 15.2662C120.652 15.6493 121.418 16.2044 122.059 16.9314C122.708 17.6584 123.208 18.5379 123.56 19.5699C123.92 20.594 124.1 21.7588 124.1 23.0644ZM120.546 23.8735V23.0409C120.546 22.1341 120.464 21.3367 120.3 20.6487C120.136 19.9608 119.894 19.3822 119.573 18.9132C119.253 18.4441 118.862 18.0923 118.4 17.8578C117.939 17.6154 117.412 17.4943 116.817 17.4943C116.223 17.4943 115.696 17.6154 115.234 17.8578C114.781 18.0923 114.394 18.4441 114.073 18.9132C113.761 19.3822 113.522 19.9608 113.358 20.6487C113.194 21.3367 113.112 22.1341 113.112 23.0409V23.8735C113.112 24.7725 113.194 25.5699 113.358 26.2657C113.522 26.9537 113.765 27.5361 114.085 28.013C114.406 28.482 114.796 28.8377 115.258 29.0801C115.719 29.3224 116.247 29.4436 116.841 29.4436C117.435 29.4436 117.963 29.3224 118.424 29.0801C118.885 28.8377 119.272 28.482 119.585 28.013C119.898 27.5361 120.136 26.9537 120.3 26.2657C120.464 25.5699 120.546 24.7725 120.546 23.8735ZM126.632 14.9262H133C134.306 14.9262 135.427 15.1216 136.366 15.5125C137.311 15.9034 138.038 16.4819 138.547 17.248C139.055 18.0141 139.309 18.9562 139.309 20.0741C139.309 20.9888 139.153 21.7745 138.84 22.4311C138.535 23.08 138.101 23.6233 137.538 24.0611C136.983 24.4911 136.33 24.8351 135.58 25.0931L134.466 25.6794H128.931L128.907 22.9354H133.023C133.641 22.9354 134.153 22.8259 134.56 22.607C134.966 22.3881 135.271 22.0833 135.474 21.6924C135.685 21.3015 135.791 20.8481 135.791 20.3321C135.791 19.7849 135.689 19.3119 135.486 18.9132C135.283 18.5145 134.974 18.2096 134.56 17.9985C134.145 17.7874 133.625 17.6819 133 17.6819H130.15V32H126.632V14.9262ZM136.178 32L132.285 24.3895L136.002 24.366L139.942 31.8358V32H136.178ZM148.948 14.9262V32H145.442V14.9262H148.948ZM154.202 14.9262V17.6819H140.27V14.9262H154.202ZM65.7717 38.9262H72.1392C73.4448 38.9262 74.5666 39.1216 75.5048 39.5125C76.4507 39.9034 77.1777 40.4819 77.6859 41.248C78.194 42.0141 78.4481 42.9562 78.4481 44.0741C78.4481 44.9888 78.2918 45.7745 77.9791 46.4311C77.6742 47.08 77.2403 47.6233 76.6774 48.0611C76.1224 48.4911 75.4696 48.8351 74.7191 49.0931L73.6051 49.6794H68.0701L68.0467 46.9354H72.1627C72.7803 46.9354 73.2924 46.8259 73.6989 46.607C74.1054 46.3881 74.4103 46.0833 74.6135 45.6924C74.8246 45.3015 74.9302 44.8481 74.9302 44.3321C74.9302 43.7849 74.8285 43.3119 74.6253 42.9132C74.422 42.5145 74.1132 42.2096 73.6989 41.9985C73.2845 41.7874 72.7647 41.6819 72.1392 41.6819H69.2897V56H65.7717V38.9262ZM75.3171 56L71.4239 48.3895L75.1412 48.366L79.0814 55.8358V56H75.3171ZM92.6138 53.256V56H83.5257V53.256H92.6138ZM84.6749 38.9262V56H81.157V38.9262H84.6749ZM91.4294 45.88V48.5536H83.5257V45.88H91.4294ZM92.6021 38.9262V41.6819H83.5257V38.9262H92.6021ZM101.315 49.9139H96.9643V47.1699H101.315C101.987 47.1699 102.534 47.0605 102.957 46.8416C103.379 46.6149 103.688 46.3022 103.883 45.9034C104.078 45.5047 104.176 45.0552 104.176 44.5549C104.176 44.0467 104.078 43.5738 103.883 43.136C103.688 42.6982 103.379 42.3464 102.957 42.0806C102.534 41.8148 101.987 41.6819 101.315 41.6819H98.1839V56H94.6659V38.9262H101.315C102.652 38.9262 103.797 39.1685 104.751 39.6532C105.712 40.1301 106.447 40.7907 106.955 41.635C107.463 42.4793 107.718 43.4448 107.718 44.5314C107.718 45.6337 107.463 46.5875 106.955 47.3927C106.447 48.1979 105.712 48.8194 104.751 49.2572C103.797 49.695 102.652 49.9139 101.315 49.9139ZM124.17 47.0644V47.8735C124.17 49.1712 123.994 50.3361 123.642 51.368C123.29 52.4 122.794 53.2794 122.153 54.0065C121.512 54.7257 120.746 55.2769 119.855 55.6599C118.971 56.043 117.99 56.2345 116.911 56.2345C115.84 56.2345 114.859 56.043 113.968 55.6599C113.084 55.2769 112.318 54.7257 111.669 54.0065C111.021 53.2794 110.516 52.4 110.157 51.368C109.805 50.3361 109.629 49.1712 109.629 47.8735V47.0644C109.629 45.7588 109.805 44.594 110.157 43.5699C110.508 42.5379 111.005 41.6584 111.646 40.9314C112.295 40.2044 113.061 39.6493 113.944 39.2662C114.836 38.8832 115.817 38.6916 116.888 38.6916C117.967 38.6916 118.948 38.8832 119.831 39.2662C120.722 39.6493 121.488 40.2044 122.129 40.9314C122.778 41.6584 123.279 42.5379 123.63 43.5699C123.99 44.594 124.17 45.7588 124.17 47.0644ZM120.617 47.8735V47.0409C120.617 46.1341 120.535 45.3367 120.371 44.6487C120.206 43.9608 119.964 43.3822 119.643 42.9132C119.323 42.4441 118.932 42.0923 118.471 41.8578C118.01 41.6154 117.482 41.4943 116.888 41.4943C116.294 41.4943 115.766 41.6154 115.305 41.8578C114.851 42.0923 114.464 42.4441 114.144 42.9132C113.831 43.3822 113.593 43.9608 113.428 44.6487C113.264 45.3367 113.182 46.1341 113.182 47.0409V47.8735C113.182 48.7725 113.264 49.5699 113.428 50.2657C113.593 50.9537 113.835 51.5361 114.155 52.013C114.476 52.482 114.867 52.8377 115.328 53.0801C115.789 53.3224 116.317 53.4436 116.911 53.4436C117.505 53.4436 118.033 53.3224 118.494 53.0801C118.956 52.8377 119.342 52.482 119.655 52.013C119.968 51.5361 120.206 50.9537 120.371 50.2657C120.535 49.5699 120.617 48.7725 120.617 47.8735ZM126.703 38.9262H133.07C134.376 38.9262 135.498 39.1216 136.436 39.5125C137.382 39.9034 138.109 40.4819 138.617 41.248C139.125 42.0141 139.379 42.9562 139.379 44.0741C139.379 44.9888 139.223 45.7745 138.91 46.4311C138.605 47.08 138.171 47.6233 137.609 48.0611C137.053 48.4911 136.401 48.8351 135.65 49.0931L134.536 49.6794H129.001L128.978 46.9354H133.094C133.711 46.9354 134.223 46.8259 134.63 46.607C135.036 46.3881 135.341 46.0833 135.545 45.6924C135.756 45.3015 135.861 44.8481 135.861 44.3321C135.861 43.7849 135.76 43.3119 135.556 42.9132C135.353 42.5145 135.044 42.2096 134.63 41.9985C134.216 41.7874 133.696 41.6819 133.07 41.6819H130.221V56H126.703V38.9262ZM136.248 56L132.355 48.3895L136.072 48.366L140.012 55.8358V56H136.248ZM149.018 38.9262V56H145.512V38.9262H149.018ZM154.272 38.9262V41.6819H140.341V38.9262H154.272Z" fill="#001D6C"/>
<path d="M40.75 14.4375C40.75 14.0563 40.5986 13.6906 40.329 13.421C40.0594 13.1515 39.6937 13 39.3125 13H30.6875C30.3063 13 29.9406 13.1515 29.671 13.421C29.4015 13.6906 29.25 14.0563 29.25 14.4375C29.25 14.8187 29.0985 15.1844 28.829 15.454C28.5594 15.7235 28.1937 15.875 27.8125 15.875C27.4313 15.875 27.0656 16.0265 26.796 16.296C26.5265 16.5656 26.375 16.9313 26.375 17.3125V18.75C26.375 19.1312 26.5265 19.4969 26.796 19.7665C27.0656 20.036 27.4313 20.1875 27.8125 20.1875H42.1875C42.5687 20.1875 42.9344 20.036 43.204 19.7665C43.4736 19.4969 43.625 19.1312 43.625 18.75V17.3125C43.625 16.9313 43.4736 16.5656 43.204 16.296C42.9344 16.0265 42.5687 15.875 42.1875 15.875C41.8063 15.875 41.4406 15.7235 41.171 15.454C40.9014 15.1844 40.75 14.8187 40.75 14.4375Z" fill="#21272A"/>
<path d="M23.7444 15.875H22.0625C20.9188 15.875 19.8219 16.3294 19.0131 17.1381C18.2044 17.9469 17.75 19.0438 17.75 20.1875V54.6875C17.75 55.8312 18.2044 56.9281 19.0131 57.7369C19.8219 58.5457 20.9188 59 22.0625 59H47.9375C49.0812 59 50.1781 58.5457 50.9869 57.7369C51.7957 56.9281 52.25 55.8312 52.25 54.6875V20.1875C52.25 19.0438 51.7957 17.9469 50.9869 17.1381C50.1781 16.3294 49.0812 15.875 47.9375 15.875H46.2556C46.4137 16.3235 46.5 16.8094 46.5 17.3125V18.75C46.5 19.8937 46.0456 20.9906 45.2369 21.7994C44.4281 22.6081 43.3312 23.0625 42.1875 23.0625H27.8125C26.6688 23.0625 25.5719 22.6081 24.7631 21.7994C23.9544 20.9906 23.5 19.8937 23.5 18.75V17.3125C23.5 16.8094 23.5863 16.3235 23.7444 15.875ZM40.75 33.125C40.75 32.3625 41.0529 31.6312 41.5921 31.0921C42.1312 30.5529 42.8625 30.25 43.625 30.25C44.3875 30.25 45.1188 30.5529 45.6579 31.0921C46.1971 31.6312 46.5 32.3625 46.5 33.125V47.5C46.5 48.2625 46.1971 48.9938 45.6579 49.5329C45.1188 50.0721 44.3875 50.375 43.625 50.375C42.8625 50.375 42.1312 50.0721 41.5921 49.5329C41.0529 48.9938 40.75 48.2625 40.75 47.5V33.125ZM23.5 44.625C23.5 43.8625 23.8029 43.1312 24.3421 42.5921C24.8812 42.0529 25.6125 41.75 26.375 41.75C27.1375 41.75 27.8688 42.0529 28.4079 42.5921C28.9471 43.1312 29.25 43.8625 29.25 44.625V47.5C29.25 48.2625 28.9471 48.9938 28.4079 49.5329C27.8688 50.0721 27.1375 50.375 26.375 50.375C25.6125 50.375 24.8812 50.0721 24.3421 49.5329C23.8029 48.9938 23.5 48.2625 23.5 47.5V44.625ZM35 36C35.7625 36 36.4938 36.3029 37.0329 36.8421C37.5721 37.3812 37.875 38.1125 37.875 38.875V47.5C37.875 48.2625 37.5721 48.9938 37.0329 49.5329C36.4938 50.0721 35.7625 50.375 35 50.375C34.2375 50.375 33.5062 50.0721 32.9671 49.5329C32.4279 48.9938 32.125 48.2625 32.125 47.5V38.875C32.125 38.1125 32.4279 37.3812 32.9671 36.8421C33.5062 36.3029 34.2375 36 35 36Z" fill="#21272A"/>
<defs>
<filter id="filter0_d_76_1432" x="0" y="0" width="173" height="78" filterUnits="userSpaceOnUse" color-interpolation-filters="sRGB">
<feFlood flood-opacity="0" result="BackgroundImageFix"/>
<feColorMatrix in="SourceAlpha" type="matrix" values="0 0 0 0 0 0 0 0 0 0 0 0 0 0 0 0 0 0 127 0" result="hardAlpha"/>
<feOffset dy="4"/>
<feGaussianBlur stdDeviation="2"/>
<feComposite in2="hardAlpha" operator="out"/>
<feColorMatrix type="matrix" values="0 0 0 0 0 0 0 0 0 0 0 0 0 0 0 0 0 0 0.25 0"/>
<feBlend mode="normal" in2="BackgroundImageFix" result="effect1_dropShadow_76_1432"/>
<feBlend mode="normal" in="SourceGraphic" in2="effect1_dropShadow_76_1432" result="shape"/>
</filter>
</defs>
</svg>
