<svg width="174" height="161" viewBox="0 0 174 161" fill="none" xmlns="http://www.w3.org/2000/svg">
<mask id="path-1-inside-1_76_1413" fill="white">
<path d="M0 0H174V161H0V0Z"/>
</mask>
<path d="M0 0H174V161H0V0Z" fill="white"/>
<path d="M174 161V156.611H0V161V165.389H174V161Z" fill="#DDE1E6" mask="url(#path-1-inside-1_76_1413)"/>
<g clip-path="url(#clip0_76_1413)">
<path d="M79.875 26.014H87.5L92.5834 31.5209H105.292C106.64 31.5209 107.933 32.1011 108.886 33.1339C109.839 34.1666 110.375 35.5673 110.375 37.0279V56.3022C110.375 57.7627 109.839 59.1634 108.886 60.1962C107.933 61.2289 106.64 61.8091 105.292 61.8091H79.875C78.5268 61.8091 77.2339 61.2289 76.2806 60.1962C75.3273 59.1634 74.7917 57.7627 74.7917 56.3022V31.5209C74.7917 30.0604 75.3273 28.6597 76.2806 27.6269C77.2339 26.5942 78.5268 26.014 79.875 26.014Z" stroke="#21272A" stroke-width="5.08333" stroke-linecap="round" stroke-linejoin="round"/>
<path d="M100.208 61.8089V67.3159C100.208 68.7764 99.6728 70.1771 98.7195 71.2099C97.7661 72.2426 96.4732 72.8228 95.125 72.8228H69.7083C68.3601 72.8228 67.0672 72.2426 66.1139 71.2099C65.1606 70.1771 64.625 68.7764 64.625 67.3159V42.5346C64.625 41.0741 65.1606 39.6734 66.1139 38.6406C67.0672 37.6079 68.3601 37.0277 69.7083 37.0277H74.7917" stroke="#21272A" stroke-width="5.08333" stroke-linecap="round" stroke-linejoin="round"/>
</g>
<path d="M68.6831 91.9262V109H65.1652V91.9262H68.6831ZM75.4845 99.2201V101.964H67.7216V99.2201H75.4845ZM76.3054 91.9262V94.6819H67.7216V91.9262H76.3054ZM82.0866 91.9262V109H78.5803V91.9262H82.0866ZM96.3578 106.256V109H87.7622V106.256H96.3578ZM88.8997 91.9262V109H85.3817V91.9262H88.8997ZM109.832 106.256V109H100.744V106.256H109.832ZM101.893 91.9262V109H98.3747V91.9262H101.893ZM108.647 98.88V101.554H100.744V98.88H108.647ZM109.82 91.9262V94.6819H100.744V91.9262H109.82ZM74.6402 130.256V133H66.0447V130.256H74.6402ZM67.1821 115.926V133H63.6642V115.926H67.1821ZM80.398 115.926V133H76.8917V115.926H80.398ZM92.5818 128.532C92.5818 128.227 92.5349 127.954 92.4411 127.711C92.3551 127.461 92.1909 127.234 91.9486 127.031C91.7063 126.82 91.3662 126.613 90.9284 126.41C90.4906 126.206 89.9238 125.995 89.228 125.776C88.4541 125.526 87.7192 125.245 87.0235 124.932C86.3355 124.619 85.7257 124.256 85.1941 123.842C84.6703 123.419 84.256 122.931 83.9511 122.376C83.654 121.821 83.5055 121.176 83.5055 120.441C83.5055 119.729 83.6618 119.085 83.9746 118.506C84.2873 117.92 84.7251 117.419 85.2879 117.005C85.8508 116.583 86.5153 116.258 87.2814 116.032C88.0554 115.805 88.9036 115.692 89.8261 115.692C91.0847 115.692 92.1831 115.918 93.1213 116.372C94.0594 116.825 94.7864 117.447 95.3024 118.236C95.8262 119.026 96.0881 119.929 96.0881 120.945H92.5936C92.5936 120.445 92.488 120.007 92.2769 119.632C92.0737 119.249 91.761 118.948 91.3388 118.729C90.9245 118.51 90.4007 118.4 89.7675 118.4C89.1577 118.4 88.6495 118.494 88.243 118.682C87.8365 118.862 87.5316 119.108 87.3283 119.421C87.1251 119.726 87.0235 120.07 87.0235 120.453C87.0235 120.742 87.0938 121.004 87.2345 121.238C87.3831 121.473 87.602 121.692 87.8912 121.895C88.1805 122.098 88.5362 122.29 88.9583 122.47C89.3805 122.649 89.8691 122.825 90.4242 122.997C91.3545 123.279 92.1714 123.595 92.875 123.947C93.5864 124.299 94.1806 124.694 94.6574 125.131C95.1343 125.569 95.4939 126.066 95.7363 126.621C95.9786 127.176 96.0998 127.805 96.0998 128.509C96.0998 129.251 95.9552 129.916 95.6659 130.502C95.3767 131.089 94.9584 131.585 94.4112 131.992C93.8639 132.398 93.2112 132.707 92.4528 132.918C91.6945 133.129 90.8463 133.235 89.9082 133.235C89.0639 133.235 88.2313 133.125 87.4104 132.906C86.5896 132.679 85.843 132.339 85.1707 131.886C84.5062 131.433 83.9746 130.854 83.5759 130.15C83.1771 129.447 82.9778 128.614 82.9778 127.653H86.5075C86.5075 128.184 86.5896 128.634 86.7537 129.001C86.9179 129.369 87.1485 129.666 87.4456 129.892C87.7505 130.119 88.1101 130.283 88.5245 130.385C88.9466 130.487 89.4079 130.537 89.9082 130.537C90.518 130.537 91.0183 130.451 91.4092 130.279C91.8079 130.107 92.101 129.869 92.2887 129.564C92.4841 129.259 92.5818 128.915 92.5818 128.532ZM106.126 115.926V133H102.62V115.926H106.126ZM111.379 115.926V118.682H97.4483V115.926H111.379Z" fill="#001D6C"/>
<defs>
<clipPath id="clip0_76_1413">
<rect width="61" height="66.0833" fill="white" transform="translate(57 15)"/>
</clipPath>
</defs>
</svg>
